<svg xmlns="http://www.w3.org/2000/svg" viewBox="0 0 1200 720" role="img" aria-label="Boekhoudbaar in Google Spreadsheets">
  <title>Boekhoudbaar draait in je eigen Google Spreadsheet — dashboard, menu en tabbladen zoals je ze echt ziet</title>

  <!-- Canvas -->
  <rect width="1200" height="720" fill="#F7F9FC"/>

  <!-- Browser window shell -->
  <rect x="24" y="24" width="1152" height="672" rx="10" fill="#FFFFFF" stroke="#E5EAF2"/>
  <rect x="24" y="24" width="1152" height="36" rx="10" fill="#F1F3F4"/>
  <rect x="24" y="50" width="1152" height="10" fill="#F1F3F4"/>
  <circle cx="48" cy="42" r="5" fill="#E5EAF2"/>
  <circle cx="66" cy="42" r="5" fill="#E5EAF2"/>
  <circle cx="84" cy="42" r="5" fill="#E5EAF2"/>
  <rect x="116" y="32" width="520" height="20" rx="10" fill="#FFFFFF" stroke="#E5EAF2"/>
  <text x="132" y="46" font-family="Inter, -apple-system, Arial, sans-serif" font-size="10" fill="#5F6B7A">docs.google.com/spreadsheets/d/…/edit — Boekhouding 2026</text>

  <!-- Google Sheets title bar -->
  <rect x="24" y="60" width="1152" height="44" fill="#FFFFFF"/>
  <!-- Sheets icon -->
  <rect x="48" y="72" width="22" height="22" rx="3" fill="#0F9D58"/>
  <rect x="52" y="76" width="14" height="2.5" fill="#FFFFFF" opacity="0.85"/>
  <rect x="52" y="81" width="14" height="2.5" fill="#FFFFFF" opacity="0.85"/>
  <rect x="52" y="86" width="14" height="2.5" fill="#FFFFFF" opacity="0.85"/>
  <text x="82" y="84" font-family="Inter, -apple-system, Arial, sans-serif" font-size="13" font-weight="600" fill="#1A1A1A">Boekhouding 2026</text>
  <text x="82" y="98" font-family="Inter, -apple-system, Arial, sans-serif" font-size="10" fill="#5F6B7A">Bestand · Bewerken · Beeld · Invoegen · Opmaak · Gegevens · Extensies · Boekhoudbaar · Help</text>

  <!-- Boekhoudbaar menu highlighted -->
  <rect x="336" y="92" width="94" height="14" rx="2" fill="rgba(13,27,78,0.08)"/>

  <!-- Avatar -->
  <circle cx="1148" cy="82" r="12" fill="#2EC4B6"/>
  <text x="1148" y="86" text-anchor="middle" font-family="Inter, -apple-system, Arial, sans-serif" font-size="11" font-weight="700" fill="#FFFFFF">S</text>

  <!-- Thin toolbar -->
  <rect x="24" y="104" width="1152" height="32" fill="#F7F9FC"/>
  <g font-family="Inter, -apple-system, Arial, sans-serif" font-size="11" fill="#5F6B7A">
    <text x="48" y="124">↶  ↷  ⎙  100%  €  %  .0</text>
    <text x="260" y="124">Standaard  ▾   11 ▾   B  I  U</text>
  </g>

  <!-- Name box + formula bar -->
  <rect x="24" y="136" width="1152" height="28" fill="#FFFFFF" stroke="#E5EAF2"/>
  <rect x="24" y="136" width="110" height="28" fill="#F7F9FC" stroke="#E5EAF2"/>
  <text x="40" y="154" font-family="Inter, -apple-system, Arial, sans-serif" font-size="11" fill="#1A1A1A">A3</text>
  <text x="150" y="154" font-family="Inter, -apple-system, Arial, sans-serif" font-size="11" fill="#5F6B7A">ƒx</text>
  <text x="172" y="154" font-family="Inter, -apple-system, Arial, sans-serif" font-size="11" fill="#1A1A1A">Bedrijfsnaam</text>

  <!-- Column headers -->
  <rect x="24" y="164" width="1152" height="22" fill="#F7F9FC" stroke="#E5EAF2"/>
  <g font-family="Inter, -apple-system, Arial, sans-serif" font-size="10" font-weight="600" fill="#5F6B7A" text-anchor="middle">
    <text x="64" y="179">A</text>
    <text x="200" y="179">B</text>
    <text x="430" y="179">C</text>
    <text x="580" y="179">D</text>
    <text x="700" y="179">E</text>
    <text x="800" y="179">F</text>
  </g>

  <!-- Row numbers gutter -->
  <rect x="24" y="186" width="40" height="450" fill="#F7F9FC" stroke="#E5EAF2"/>
  <g font-family="Inter, -apple-system, Arial, sans-serif" font-size="10" fill="#5F6B7A" text-anchor="middle">
    <text x="44" y="204">1</text>
    <text x="44" y="232">2</text>
    <text x="44" y="264">3</text>
    <text x="44" y="292">4</text>
    <text x="44" y="320">5</text>
    <text x="44" y="348">6</text>
    <text x="44" y="376">7</text>
    <text x="44" y="404">8</text>
    <text x="44" y="432">9</text>
    <text x="44" y="460">10</text>
    <text x="44" y="488">11</text>
    <text x="44" y="516">12</text>
    <text x="44" y="544">13</text>
    <text x="44" y="572">14</text>
    <text x="44" y="600">15</text>
    <text x="44" y="628">16</text>
  </g>

  <!-- Sheet area (left of sidebar) -->
  <!-- Row 1: START HIER banner -->
  <rect x="64" y="186" width="740" height="28" fill="#E6F7F4"/>
  <rect x="64" y="186" width="4" height="28" fill="#2EC4B6"/>
  <text x="78" y="205" font-family="Inter, -apple-system, Arial, sans-serif" font-size="12" font-weight="700" fill="#0D1B4E">START HIER — Vul deze velden eenmalig in</text>

  <!-- Row 2 blank spacer -->
  <rect x="64" y="214" width="740" height="28" fill="#FFFFFF"/>

  <!-- Row 3 Bedrijfsnaam -->
  <rect x="64" y="242" width="740" height="28" fill="#FFFFFF"/>
  <rect x="64" y="242" width="740" height="1" fill="#E5EAF2"/>
  <text x="78" y="261" font-family="Inter, -apple-system, Arial, sans-serif" font-size="12" fill="#1A1A1A">Bedrijfsnaam</text>
  <text x="236" y="261" font-family="Inter, -apple-system, Arial, sans-serif" font-size="12" font-weight="600" fill="#0D1B4E">Studio Veld</text>

  <!-- Row 4 KVK -->
  <rect x="64" y="270" width="740" height="28" fill="#FFFFFF"/>
  <rect x="64" y="270" width="740" height="1" fill="#E5EAF2"/>
  <text x="78" y="289" font-family="Inter, -apple-system, Arial, sans-serif" font-size="12" fill="#1A1A1A">KVK-nummer</text>
  <text x="236" y="289" font-family="Inter, -apple-system, Arial, sans-serif" font-size="12" fill="#1A1A1A">87254697</text>

  <!-- Row 5 BTW -->
  <rect x="64" y="298" width="740" height="28" fill="#FFFFFF"/>
  <rect x="64" y="298" width="740" height="1" fill="#E5EAF2"/>
  <text x="78" y="317" font-family="Inter, -apple-system, Arial, sans-serif" font-size="12" fill="#1A1A1A">BTW-nummer</text>
  <text x="236" y="317" font-family="Inter, -apple-system, Arial, sans-serif" font-size="12" fill="#1A1A1A">NL004384587B39</text>

  <!-- Row 6 IBAN -->
  <rect x="64" y="326" width="740" height="28" fill="#FFFFFF"/>
  <rect x="64" y="326" width="740" height="1" fill="#E5EAF2"/>
  <text x="78" y="345" font-family="Inter, -apple-system, Arial, sans-serif" font-size="12" fill="#1A1A1A">IBAN</text>
  <text x="236" y="345" font-family="Inter, -apple-system, Arial, sans-serif" font-size="12" fill="#1A1A1A">NL42 INGB 0123 4567 89</text>

  <!-- Row 7 E-mail -->
  <rect x="64" y="354" width="740" height="28" fill="#FFFFFF"/>
  <rect x="64" y="354" width="740" height="1" fill="#E5EAF2"/>
  <text x="78" y="373" font-family="Inter, -apple-system, Arial, sans-serif" font-size="12" fill="#1A1A1A">E-mailadres</text>
  <text x="236" y="373" font-family="Inter, -apple-system, Arial, sans-serif" font-size="12" fill="#1A1A1A">sam@studioveld.nl</text>

  <!-- Row 8 spacer -->
  <rect x="64" y="382" width="740" height="14" fill="#FFFFFF"/>

  <!-- Section header: BTW-instellingen -->
  <rect x="64" y="396" width="740" height="26" fill="#0D1B4E"/>
  <text x="78" y="414" font-family="Inter, -apple-system, Arial, sans-serif" font-size="11" font-weight="700" letter-spacing="1" fill="#FFFFFF">BTW-INSTELLINGEN</text>

  <!-- Row 10 BTW-plichtig -->
  <rect x="64" y="422" width="740" height="28" fill="#FFFFFF"/>
  <text x="78" y="441" font-family="Inter, -apple-system, Arial, sans-serif" font-size="12" fill="#1A1A1A">BTW-plichtig</text>
  <text x="236" y="441" font-family="Inter, -apple-system, Arial, sans-serif" font-size="12" fill="#1A1A1A">Ja</text>
  <text x="410" y="441" font-family="Inter, -apple-system, Arial, sans-serif" font-size="10" fill="#5F6B7A">← Dropdown: Ja / Nee / KOR</text>

  <!-- Row 11 BTW-aangiftefrequentie -->
  <rect x="64" y="450" width="740" height="28" fill="#FFFFFF"/>
  <rect x="64" y="450" width="740" height="1" fill="#E5EAF2"/>
  <text x="78" y="469" font-family="Inter, -apple-system, Arial, sans-serif" font-size="12" fill="#1A1A1A">Aangifte-frequentie</text>
  <text x="236" y="469" font-family="Inter, -apple-system, Arial, sans-serif" font-size="12" fill="#1A1A1A">Per kwartaal</text>

  <!-- Row 12 Boekjaar -->
  <rect x="64" y="478" width="740" height="28" fill="#FFFFFF"/>
  <rect x="64" y="478" width="740" height="1" fill="#E5EAF2"/>
  <text x="78" y="497" font-family="Inter, -apple-system, Arial, sans-serif" font-size="12" fill="#1A1A1A">Boekjaar start</text>
  <text x="236" y="497" font-family="Inter, -apple-system, Arial, sans-serif" font-size="12" fill="#1A1A1A">2026</text>

  <!-- Row 13 spacer -->
  <rect x="64" y="506" width="740" height="30" fill="#FFFFFF"/>

  <!-- Active cell highlight on Bedrijfsnaam (row 3) -->
  <rect x="64" y="243" width="165" height="27" fill="none" stroke="#2EC4B6" stroke-width="2"/>

  <!-- Sidebar: Boekhoudbaar Dashboard (right side, 340px wide) -->
  <rect x="810" y="186" width="346" height="450" fill="#F7F9FC" stroke="#E5EAF2"/>

  <!-- Sidebar header -->
  <rect x="810" y="186" width="346" height="48" fill="#0D1B4E"/>
  <text x="826" y="212" font-family="Inter, -apple-system, Arial, sans-serif" font-size="13" font-weight="700" fill="#FFFFFF">Dashboard</text>
  <text x="826" y="226" font-family="Inter, -apple-system, Arial, sans-serif" font-size="10" fill="#B8C2D1">Studio Veld · Q1 2026</text>
  <rect x="1080" y="200" width="64" height="20" rx="3" fill="rgba(255,255,255,0.15)"/>
  <text x="1112" y="214" text-anchor="middle" font-family="Inter, -apple-system, Arial, sans-serif" font-size="10" fill="#FFFFFF">↻ Vernieuwen</text>

  <!-- KPI grid 2x2 -->
  <!-- KPI 1: Omzet -->
  <rect x="822" y="248" width="160" height="68" rx="6" fill="#FFFFFF" stroke="#E5EAF2"/>
  <text x="834" y="266" font-family="Inter, -apple-system, Arial, sans-serif" font-size="9" font-weight="700" letter-spacing="0.5" fill="#5F6B7A">OMZET Q1</text>
  <text x="834" y="292" font-family="Inter, -apple-system, Arial, sans-serif" font-size="18" font-weight="800" fill="#0D1B4E">€ 42.180</text>
  <text x="834" y="306" font-family="Inter, -apple-system, Arial, sans-serif" font-size="10" fill="#2EC4B6">▲ 12%</text>

  <!-- KPI 2: Kosten -->
  <rect x="990" y="248" width="160" height="68" rx="6" fill="#FFFFFF" stroke="#E5EAF2"/>
  <text x="1002" y="266" font-family="Inter, -apple-system, Arial, sans-serif" font-size="9" font-weight="700" letter-spacing="0.5" fill="#5F6B7A">KOSTEN Q1</text>
  <text x="1002" y="292" font-family="Inter, -apple-system, Arial, sans-serif" font-size="18" font-weight="800" fill="#0D1B4E">€ 8.940</text>
  <text x="1002" y="306" font-family="Inter, -apple-system, Arial, sans-serif" font-size="10" fill="#5F6B7A">21% van omzet</text>

  <!-- KPI 3: Nettowinst -->
  <rect x="822" y="324" width="160" height="68" rx="6" fill="#FFFFFF" stroke="#E5EAF2"/>
  <text x="834" y="342" font-family="Inter, -apple-system, Arial, sans-serif" font-size="9" font-weight="700" letter-spacing="0.5" fill="#5F6B7A">NETTOWINST</text>
  <text x="834" y="368" font-family="Inter, -apple-system, Arial, sans-serif" font-size="18" font-weight="800" fill="#0D1B4E">€ 33.240</text>
  <text x="834" y="382" font-family="Inter, -apple-system, Arial, sans-serif" font-size="10" fill="#2EC4B6">▲ 18%</text>

  <!-- KPI 4: BTW -->
  <rect x="990" y="324" width="160" height="68" rx="6" fill="#FFFFFF" stroke="#E5EAF2"/>
  <text x="1002" y="342" font-family="Inter, -apple-system, Arial, sans-serif" font-size="9" font-weight="700" letter-spacing="0.5" fill="#5F6B7A">BTW-SALDO</text>
  <text x="1002" y="368" font-family="Inter, -apple-system, Arial, sans-serif" font-size="18" font-weight="800" fill="#0D1B4E">€ 6.218</text>
  <text x="1002" y="382" font-family="Inter, -apple-system, Arial, sans-serif" font-size="10" fill="#5F6B7A">Aangifte 30 apr</text>

  <!-- Action grid heading -->
  <text x="822" y="418" font-family="Inter, -apple-system, Arial, sans-serif" font-size="9" font-weight="700" letter-spacing="0.5" fill="#5F6B7A">SNEL AAN DE SLAG</text>

  <!-- Action 1: Nieuwe factuur (primary, navy) -->
  <rect x="822" y="426" width="104" height="60" rx="6" fill="#0D1B4E"/>
  <text x="874" y="452" text-anchor="middle" font-family="Inter, -apple-system, Arial, sans-serif" font-size="18" fill="#FFFFFF">＋</text>
  <text x="874" y="474" text-anchor="middle" font-family="Inter, -apple-system, Arial, sans-serif" font-size="10" font-weight="700" fill="#FFFFFF">Nieuwe factuur</text>

  <!-- Action 2: Kosten boeken -->
  <rect x="934" y="426" width="104" height="60" rx="6" fill="#FFFFFF" stroke="#E5EAF2"/>
  <text x="986" y="452" text-anchor="middle" font-family="Inter, -apple-system, Arial, sans-serif" font-size="16" fill="#0D1B4E">€</text>
  <text x="986" y="474" text-anchor="middle" font-family="Inter, -apple-system, Arial, sans-serif" font-size="10" font-weight="600" fill="#0D1B4E">Kosten boeken</text>

  <!-- Action 3: BTW-aangifte -->
  <rect x="1046" y="426" width="104" height="60" rx="6" fill="#FFFFFF" stroke="#E5EAF2"/>
  <text x="1098" y="452" text-anchor="middle" font-family="Inter, -apple-system, Arial, sans-serif" font-size="14" fill="#0D1B4E">📋</text>
  <text x="1098" y="474" text-anchor="middle" font-family="Inter, -apple-system, Arial, sans-serif" font-size="10" font-weight="600" fill="#0D1B4E">BTW-aangifte</text>

  <!-- Openstaande facturen list -->
  <text x="822" y="510" font-family="Inter, -apple-system, Arial, sans-serif" font-size="9" font-weight="700" letter-spacing="0.5" fill="#5F6B7A">OPENSTAAND · € 9.640</text>

  <rect x="822" y="518" width="328" height="106" rx="6" fill="#FFFFFF" stroke="#E5EAF2"/>
  <!-- Invoice row 1 -->
  <text x="834" y="538" font-family="Inter, -apple-system, Arial, sans-serif" font-size="11" font-weight="600" fill="#0D1B4E">2026-041 · Studio Veld</text>
  <text x="1138" y="538" text-anchor="end" font-family="Inter, -apple-system, Arial, sans-serif" font-size="11" font-weight="700" fill="#0D1B4E">€ 2.420</text>
  <line x1="834" y1="546" x2="1138" y2="546" stroke="#F7F9FC"/>
  <!-- Invoice row 2 (overdue) -->
  <text x="834" y="566" font-family="Inter, -apple-system, Arial, sans-serif" font-size="11" font-weight="600" fill="#0D1B4E">2026-039 · Bloem Ontwerp</text>
  <text x="834" y="578" font-family="Inter, -apple-system, Arial, sans-serif" font-size="9" fill="#B91C1C">Vervallen sinds 2 apr</text>
  <text x="1138" y="566" text-anchor="end" font-family="Inter, -apple-system, Arial, sans-serif" font-size="11" font-weight="700" fill="#B91C1C">€ 3.200</text>
  <line x1="834" y1="588" x2="1138" y2="588" stroke="#F7F9FC"/>
  <!-- Invoice row 3 -->
  <text x="834" y="608" font-family="Inter, -apple-system, Arial, sans-serif" font-size="11" font-weight="600" fill="#0D1B4E">2026-040 · Kuipers &amp; Co</text>
  <text x="1138" y="608" text-anchor="end" font-family="Inter, -apple-system, Arial, sans-serif" font-size="11" font-weight="700" fill="#0D1B4E">€ 1.815</text>

  <!-- Bottom tab bar (Google Sheets tabs) -->
  <rect x="24" y="636" width="1152" height="36" fill="#F7F9FC" stroke="#E5EAF2"/>
  <g font-family="Inter, -apple-system, Arial, sans-serif" font-size="11">
    <rect x="40" y="640" width="4" height="28" fill="#2EC4B6"/>
    <rect x="44" y="642" width="82" height="26" fill="#FFFFFF" stroke="#E5EAF2"/>
    <text x="85" y="659" text-anchor="middle" font-weight="700" fill="#0D1B4E">Instellingen</text>

    <text x="148" y="659" fill="#5F6B7A">Dashboard</text>
    <text x="220" y="659" fill="#5F6B7A">Verkoopfacturen</text>
    <text x="328" y="659" fill="#5F6B7A">Inkoopfacturen</text>
    <text x="428" y="659" fill="#5F6B7A">Bankboek</text>
    <text x="498" y="659" fill="#5F6B7A">BTW-aangifte</text>
    <text x="586" y="659" fill="#5F6B7A">Balans</text>
    <text x="634" y="659" fill="#5F6B7A">W&amp;V</text>
    <text x="680" y="659" fill="#5F6B7A">Cashflow</text>
    <text x="744" y="659" fill="#5F6B7A">Grootboek</text>
    <text x="820" y="659" fill="#5F6B7A">Relaties</text>
    <text x="880" y="659" fill="#5F6B7A">+ 8 tabbladen</text>
  </g>

  <!-- Bottom status bar -->
  <rect x="24" y="672" width="1152" height="24" fill="#FFFFFF" stroke="#E5EAF2"/>
  <text x="48" y="688" font-family="Inter, -apple-system, Arial, sans-serif" font-size="10" fill="#5F6B7A">Laatste wijziging: zojuist opgeslagen in Drive · Boekhoudbaar v2.0</text>
</svg>
